<svg width="1080" height="720" viewBox="0 0 1080 720" fill="none" xmlns="http://www.w3.org/2000/svg">
<path d="M1080 0H0V720H1080V0Z" fill="#FCFAE6"/>
<path fill-rule="evenodd" clip-rule="evenodd" d="M267.84 324.62C267.146 324.62 266.458 324.757 265.817 325.023C265.176 325.289 264.593 325.679 264.103 326.17C263.613 326.661 263.224 327.245 262.959 327.886C262.694 328.528 262.559 329.216 262.56 329.91V341.35L516.66 342.7C518.621 336.895 521.157 331.301 524.23 326L267.84 324.62Z" fill="#202641"/>
<path d="M734.14 616.69V666.69L262.56 664.19V329.19C262.56 327.972 263.043 326.803 263.904 325.941C264.764 325.078 265.932 324.593 267.15 324.59L512.81 326.67" stroke="#202641" stroke-width="2"/>
<path fill-rule="evenodd" clip-rule="evenodd" d="M277.41 336.51C278.045 336.51 278.665 336.322 279.193 335.969C279.721 335.616 280.133 335.115 280.376 334.528C280.619 333.942 280.682 333.296 280.558 332.674C280.434 332.051 280.129 331.479 279.68 331.03C279.231 330.581 278.659 330.276 278.036 330.152C277.414 330.028 276.768 330.091 276.182 330.334C275.595 330.577 275.094 330.989 274.741 331.517C274.388 332.045 274.2 332.665 274.2 333.3C274.199 333.722 274.281 334.14 274.442 334.53C274.602 334.92 274.839 335.274 275.137 335.573C275.436 335.871 275.79 336.107 276.18 336.268C276.57 336.429 276.988 336.511 277.41 336.51Z" fill="#8B8E9C"/>
<path fill-rule="evenodd" clip-rule="evenodd" d="M288.11 336.51C288.745 336.51 289.366 336.322 289.894 335.969C290.421 335.616 290.833 335.115 291.076 334.528C291.319 333.942 291.382 333.296 291.258 332.674C291.135 332.051 290.829 331.479 290.38 331.03C289.931 330.581 289.359 330.276 288.736 330.152C288.114 330.028 287.468 330.091 286.882 330.334C286.295 330.577 285.794 330.989 285.441 331.517C285.088 332.045 284.9 332.665 284.9 333.3C284.9 334.151 285.238 334.968 285.84 335.57C286.442 336.172 287.259 336.51 288.11 336.51Z" fill="#8B8E9C"/>
<path fill-rule="evenodd" clip-rule="evenodd" d="M298.81 336.51C299.445 336.51 300.066 336.322 300.593 335.969C301.121 335.616 301.533 335.115 301.776 334.528C302.019 333.942 302.082 333.296 301.958 332.674C301.835 332.051 301.529 331.479 301.08 331.03C300.631 330.581 300.059 330.276 299.436 330.152C298.814 330.028 298.168 330.091 297.582 330.334C296.995 330.577 296.494 330.989 296.141 331.517C295.788 332.045 295.6 332.665 295.6 333.3C295.6 334.151 295.938 334.968 296.54 335.57C297.142 336.172 297.959 336.51 298.81 336.51Z" fill="#8B8E9C"/>
<path d="M421 434.59C419 441.59 411.21 444.32 404.72 442.93C404.39 444.44 403.77 447.15 402.92 450.71C401.303 452.703 399.14 454.18 396.695 454.96C394.251 455.739 391.632 455.788 389.16 455.1C380.71 453.1 377.57 445.79 376.69 443.5C387.69 426.1 371.31 412.93 371.31 412.93L405 394C413.51 405.22 423.73 424.86 421 434.59Z" fill="#ADB9E5"/>
<path d="M443.71 692.61C430.41 678.46 461.21 623.61 445.14 580.38C433.97 550.29 410.93 540.9 382.14 535.5C382.14 535.5 385.35 522.59 389.37 506.36C354.89 516.73 320 526.5 287 541.12C280.5 561.32 276.37 578.61 272.68 585.61C242.61 642.61 224.38 645.73 224.38 665.43C224.38 677.82 233.23 677.94 233.23 692.61H269.42C269.42 692.61 260.32 676.21 299.88 654.17C337.15 633.41 346.35 607.17 353.15 578.24C371.15 591.13 387.63 609.07 394.04 630.24C400.13 650.33 382.7 669 400.27 678.49C402.856 679.846 405.031 681.871 406.567 684.355C408.103 686.839 408.943 689.69 409 692.61H443.71Z" fill="url(#paint0_radial_226_214)"/>
<path d="M477.31 479.63L430.39 495.85L425.06 486.75C414.12 491.05 403.28 495.57 393.29 501.75C400.87 508.85 417.66 521.53 441 521.53C471.8 521.55 478 483.81 477.31 479.63Z" fill="#ADB9E5"/>
<path d="M403.26 449.55L388.78 497.07C390.181 498.731 391.688 500.301 393.29 501.77C403.29 495.57 414.12 491.05 425.06 486.77L403.26 449.55Z" fill="white" stroke="#323232" stroke-width="2" stroke-linecap="round" stroke-linejoin="round"/>
<path d="M402.88 450.78C401.262 452.771 399.098 454.246 396.654 455.024C394.209 455.802 391.591 455.849 389.12 455.16C380.67 453.16 377.53 445.85 376.65 443.57C324.52 443.57 300.5 498.8 286.88 541.19C319.93 526.57 354.78 516.8 389.26 506.43C394 487.3 399.85 463.54 402.88 450.78Z" fill="white" stroke="#323232" stroke-width="2" stroke-linecap="round" stroke-linejoin="round"/>
<path d="M413 412.26C415.9 410.72 419.57 408.9 421.29 410.34C423.88 412.52 422.57 418.17 418.2 423.34L413 412.26Z" fill="#ADB9E5"/>
<path d="M389.37 506.36C394.1 487.23 400 463.47 403 450.71C403.85 447.15 404.47 444.44 404.8 442.93C411.29 444.32 419.09 441.61 421.08 434.59C422.08 431.13 421.39 426.42 419.75 421.29C422.84 416.75 423.44 412.35 421.29 410.29C419.58 408.7 417.38 409.06 415.13 410.1C412.303 404.422 408.934 399.03 405.07 394" stroke="#323232" stroke-width="5" stroke-linecap="round" stroke-linejoin="round"/>
<path d="M517.548 446.47L139.868 577.032L147.961 600.443L525.641 469.881L517.548 446.47Z" fill="white" stroke="#323232" stroke-width="2" stroke-linecap="round" stroke-linejoin="round"/>
<path d="M420.76 507.09C418.17 512.33 397.76 548.63 357.13 545.09C322.44 542.09 324.34 509.29 338.85 486.64L379.44 498.34L373.18 523.55L420.76 507.09Z" fill="#ADB9E5"/>
<path d="M400.3 513.8C402.2 508.37 406.59 497.25 411.04 499.06C414.65 500.52 411.83 511.66 411.83 511.66L400.3 513.8Z" fill="#ADB9E5"/>
<path d="M380.27 434.76C381.08 425.06 374.27 416.76 363.33 409.03C363.016 408.814 362.751 408.534 362.554 408.208C362.356 407.883 362.23 407.519 362.184 407.14C362.137 406.762 362.172 406.379 362.285 406.015C362.398 405.651 362.587 405.315 362.84 405.03L389.28 374.67C389.67 374.222 390.157 373.87 390.705 373.641C391.253 373.411 391.846 373.311 392.439 373.348C393.031 373.385 393.607 373.557 394.123 373.853C394.638 374.148 395.078 374.557 395.41 375.05L410 396.8L391.85 409.36C391.85 409.36 388.59 435.31 380.27 434.76Z" fill="#323232"/>
<path d="M406.83 414.24C407.692 414.24 408.39 413.542 408.39 412.68C408.39 411.818 407.692 411.12 406.83 411.12C405.968 411.12 405.27 411.818 405.27 412.68C405.27 413.542 405.968 414.24 406.83 414.24Z" fill="#323232"/>
<path d="M414 427.34C416.332 428.259 418.919 428.302 421.28 427.46" stroke="#323232" stroke-width="2" stroke-linecap="round" stroke-linejoin="round"/>
<path d="M389.77 430.33C392.399 430.33 394.53 428.199 394.53 425.57C394.53 422.941 392.399 420.81 389.77 420.81C387.141 420.81 385.01 422.941 385.01 425.57C385.01 428.199 387.141 430.33 389.77 430.33Z" fill="#ADB9E5"/>
<path d="M408.35 398.46C384.12 413.46 396.73 415.58 394.8 424.27C394.765 424.441 394.679 424.597 394.555 424.719C394.43 424.842 394.272 424.924 394.101 424.956C393.929 424.988 393.752 424.969 393.592 424.9C393.431 424.831 393.295 424.716 393.2 424.57C391.156 421.781 388.39 419.603 385.2 418.27L381 407L408.35 398.46Z" fill="#323232"/>
<path d="M387.57 464.31L379.44 498.31L338.85 486.61C342.373 480.905 346.976 475.942 352.4 472C376.89 455 387.57 464.31 387.57 464.31Z" fill="white"/>
<path d="M379.44 498.34L338.85 486.64" stroke="#323232" stroke-width="2" stroke-linecap="round" stroke-linejoin="round"/>
<path d="M387.92 466.55L374.05 521.55C374.05 521.55 374.61 535.27 367.86 535.8C367.026 535.866 366.19 535.723 365.426 535.382C364.663 535.041 363.997 534.514 363.489 533.85C362.982 533.185 362.649 532.404 362.522 531.578C362.395 530.752 362.476 529.907 362.76 529.12C364.26 523.81 374.13 521.55 374.13 521.55L400.39 512.68C401.3 509.68 406.5 497.74 410.21 498.68C413.92 499.62 412.21 508.83 412.21 508.83" stroke="#323232" stroke-width="5" stroke-linecap="round" stroke-linejoin="round"/>
<path d="M475.82 489.37C476.31 486.79 477.56 473.37 468.01 478.27C462.12 481.27 454.73 498.11 454.73 498.11L475.82 489.37Z" fill="#ADB9E5"/>
<path d="M476.18 487.11C476.67 484.54 475.6 473.63 467.85 478.44C461.85 482.16 454.73 498.11 454.73 498.11" stroke="#323232" stroke-width="2" stroke-linecap="round" stroke-linejoin="round"/>
<path d="M469.43 477.61L466.08 486.82" stroke="#323232" stroke-width="2" stroke-linecap="round" stroke-linejoin="round"/>
<path d="M473.7 478.16L471.43 485.43" stroke="#323232" stroke-width="2" stroke-linecap="round" stroke-linejoin="round"/>
<path d="M421.26 506C409.68 525.95 391.2 547.14 356.41 545.48C351.64 545.26 343.26 544.23 334.83 535.87" stroke="#323232" stroke-width="2" stroke-linecap="round" stroke-linejoin="round"/>
<path d="M1003.92 165.91C1024.69 233.21 1013.68 330.08 890.1 388.62" stroke="#FF3C00" stroke-width="5" stroke-linecap="round" stroke-linejoin="round"/>
<path d="M503.51 98.93C649.41 55.67 650.12 156.04 619.51 149.41C588.67 142.74 589.62 27.1 722.09 41.06L742.25 128.85C770.25 86.16 831.46 69.38 885.25 73.01" stroke="#FF3C00" stroke-width="5" stroke-linecap="round" stroke-linejoin="round"/>
<path d="M229.91 196.09C276.76 122.62 253.62 47.09 219.76 58.09C189.11 68 205.28 190.16 358.3 152.87" stroke="#FF3C00" stroke-width="5" stroke-linecap="round" stroke-linejoin="round"/>
<path d="M286.15 434.77C255.15 449.55 182.7 469.32 141.97 425.57C117.84 399.66 117.09 355.87 132.63 315.9" stroke="#FF3C00" stroke-width="5" stroke-linecap="round" stroke-linejoin="round"/>
<path d="M582.58 693.55H52.5701" stroke="#323232" stroke-width="2" stroke-linecap="round" stroke-linejoin="round"/>
<path fill-rule="evenodd" clip-rule="evenodd" d="M841.61 262.84C841.611 261.804 841.408 260.779 841.013 259.821C840.617 258.864 840.037 257.994 839.305 257.262C838.574 256.529 837.704 255.947 836.748 255.551C835.791 255.154 834.765 254.95 833.73 254.95L557.81 253.46C552.2 262.07 544.44 269.46 539.08 278.3L841.61 279.9V262.84Z" fill="#202641"/>
<path d="M555.48 253.06L834.76 255C836.577 255.003 838.32 255.727 839.604 257.013C840.888 258.299 841.61 260.042 841.61 261.86V584.37" stroke="#202641" stroke-width="2"/>
<path d="M736.16 156C608 156 504 260 504 388.16C504 516.32 608 620.31 736.16 620.31C864.32 620.31 968.31 516.38 968.31 388.16C968.31 259.94 864.38 156 736.16 156ZM736.16 606.13C615.78 606.13 518.16 508.54 518.16 388.13C518.16 267.72 615.75 170.13 736.16 170.13C856.57 170.13 954.16 267.72 954.16 388.13C954.16 508.54 856.55 606.14 736.16 606.14V606.13Z" fill="white" stroke="#323232" stroke-width="2" stroke-linecap="round" stroke-linejoin="round"/>
<path d="M983 441.74C973.85 483.676 954.179 522.593 925.838 554.828C897.497 587.063 861.419 611.556 821 626" stroke="#323232" stroke-width="2" stroke-linecap="round" stroke-linejoin="round"/>
<path d="M499.17 300.87C518.68 248.087 555.212 203.304 603 173.59" stroke="#323232" stroke-width="2" stroke-linecap="round" stroke-linejoin="round"/>
<path d="M935.63 388.16C935.63 498.33 846.32 587.63 736.16 587.63C733.333 587.63 730.517 587.57 727.71 587.45C833.95 583.02 918.71 495.45 918.71 388.16C918.71 280.87 834 193.36 727.82 188.88C730.58 188.76 733.37 188.7 736.16 188.7C846.32 188.7 935.63 278 935.63 388.16Z" fill="white"/>
<path d="M771.8 367.7L731.55 328.06L677.63 407.33L629.15 366.81L584.96 386.78" stroke="#323232" stroke-width="2" stroke-linecap="round" stroke-linejoin="round"/>
<path d="M780.52 430.33H612.36V328.21" stroke="#323232" stroke-width="2" stroke-linecap="round" stroke-linejoin="round"/>
<path d="M629.15 375.03C633.69 375.03 637.37 371.35 637.37 366.81C637.37 362.27 633.69 358.59 629.15 358.59C624.61 358.59 620.93 362.27 620.93 366.81C620.93 371.35 624.61 375.03 629.15 375.03Z" fill="#A18FD6" stroke="#323232" stroke-width="2" stroke-linecap="round" stroke-linejoin="round"/>
<path d="M677.63 415.55C682.17 415.55 685.85 411.87 685.85 407.33C685.85 402.79 682.17 399.11 677.63 399.11C673.09 399.11 669.41 402.79 669.41 407.33C669.41 411.87 673.09 415.55 677.63 415.55Z" fill="#A18FD6" stroke="#323232" stroke-width="2" stroke-linecap="round" stroke-linejoin="round"/>
<path d="M731.55 336.29C736.09 336.29 739.77 332.61 739.77 328.07C739.77 323.53 736.09 319.85 731.55 319.85C727.01 319.85 723.33 323.53 723.33 328.07C723.33 332.61 727.01 336.29 731.55 336.29Z" fill="#A18FD6" stroke="#323232" stroke-width="2" stroke-linecap="round" stroke-linejoin="round"/>
<path d="M771.8 375.92C776.34 375.92 780.02 372.24 780.02 367.7C780.02 363.16 776.34 359.48 771.8 359.48C767.26 359.48 763.58 363.16 763.58 367.7C763.58 372.24 767.26 375.92 771.8 375.92Z" fill="#A18FD6" stroke="#323232" stroke-width="2" stroke-linecap="round" stroke-linejoin="round"/>
<path d="M612.36 535.18H780.52" stroke="#323232" stroke-width="2" stroke-linecap="round" stroke-linejoin="round"/>
<path d="M689.3 521.55H658V480.8H689.3V521.55ZM780.52 521.55H749.19V465.55H780.52V521.55Z" fill="url(#paint1_linear_226_214)"/>
<path d="M643.69 521.55H612.36V507.85H643.69V521.55ZM734.91 521.55H703.58V494.55H734.91V521.55Z" fill="url(#paint2_linear_226_214)"/>
<path d="M237.76 328.21L221.67 289.28C231.528 277.899 236.803 263.26 236.47 248.207C236.136 233.154 230.219 218.763 219.866 207.83C209.514 196.896 195.467 190.203 180.454 189.049C165.442 187.895 150.537 192.364 138.635 201.587C126.734 210.81 118.687 224.128 116.057 238.953C113.428 253.779 116.404 269.052 124.407 281.805C132.411 294.559 144.87 303.881 159.363 307.961C173.857 312.04 189.349 310.586 202.83 303.88L237.76 328.21Z" fill="#EBEEF9"/>
<path d="M199.9 193.66C190.527 189.608 180.285 187.983 170.118 188.935C159.952 189.886 150.189 193.383 141.731 199.104C133.273 204.824 126.392 212.584 121.725 221.665C117.057 230.747 114.752 240.858 115.023 251.065C115.295 261.273 118.133 271.247 123.277 280.068C128.421 288.888 135.704 296.271 144.454 301.534C153.204 306.797 163.139 309.771 173.342 310.181C183.544 310.591 193.686 308.424 202.83 303.88L237.76 328.21L223.42 293.54" stroke="#323232" stroke-width="2" stroke-linecap="round" stroke-linejoin="round"/>
<path d="M199 226.62H134.96C129.382 226.62 124.86 231.14 124.86 236.715C124.86 242.29 129.382 246.81 134.96 246.81H199C204.578 246.81 209.1 242.29 209.1 236.715C209.1 231.14 204.578 226.62 199 226.62Z" fill="white"/>
<path d="M214.92 253.17H150.88C145.302 253.17 140.78 257.69 140.78 263.265C140.78 268.84 145.302 273.36 150.88 273.36H214.92C220.498 273.36 225.02 268.84 225.02 263.265C225.02 257.69 220.498 253.17 214.92 253.17Z" fill="white"/>
<path d="M134.09 237.23H195.12" stroke="#323232" stroke-width="2" stroke-linecap="round" stroke-linejoin="round"/>
<path d="M152.38 263.26H213.41" stroke="#323232" stroke-width="2" stroke-linecap="round" stroke-linejoin="round"/>
<path d="M225.02 287.23C238.258 287.23 248.99 276.498 248.99 263.26C248.99 250.022 238.258 239.29 225.02 239.29C211.782 239.29 201.05 250.022 201.05 263.26C201.05 276.498 211.782 287.23 225.02 287.23Z" fill="white" stroke="#323232" stroke-width="2" stroke-linecap="round" stroke-linejoin="round"/>
<path d="M226.12 247.51L229.41 257.64H240.07C240.315 257.64 240.554 257.718 240.752 257.862C240.951 258.006 241.098 258.209 241.174 258.443C241.249 258.676 241.249 258.927 241.173 259.16C241.097 259.393 240.949 259.596 240.75 259.74L232.13 266L235.42 276.13C235.495 276.362 235.495 276.613 235.42 276.845C235.345 277.078 235.198 277.28 235.001 277.424C234.803 277.569 234.565 277.647 234.321 277.648C234.077 277.649 233.838 277.572 233.64 277.43L225 271.17L216.38 277.43C216.182 277.577 215.942 277.656 215.695 277.657C215.449 277.658 215.208 277.581 215.009 277.436C214.809 277.291 214.661 277.086 214.586 276.851C214.51 276.617 214.512 276.364 214.59 276.13L217.9 266L209.29 259.74C209.091 259.596 208.943 259.393 208.867 259.16C208.791 258.927 208.79 258.676 208.866 258.443C208.942 258.209 209.089 258.006 209.287 257.862C209.486 257.718 209.725 257.64 209.97 257.64H220.62L223.91 247.51C223.985 247.276 224.132 247.071 224.331 246.926C224.529 246.781 224.769 246.703 225.015 246.703C225.261 246.703 225.5 246.781 225.699 246.926C225.898 247.071 226.045 247.276 226.12 247.51Z" fill="#FF3C00"/>
<path d="M494.49 135.19C494.488 123.973 491.382 112.975 485.514 103.415C479.647 93.8544 471.249 86.1044 461.248 81.0231C451.248 75.9418 440.037 73.7275 428.856 74.6254C417.674 75.5233 406.96 79.4983 397.899 86.1103C388.838 92.7223 381.783 101.713 377.517 112.087C373.251 122.461 371.939 133.814 373.727 144.888C375.515 155.961 380.333 166.324 387.648 174.828C394.963 183.332 404.488 189.646 415.17 193.07L413.91 297.75L439.09 195.75C454.223 194.407 468.304 187.445 478.559 176.236C488.813 165.026 494.497 150.382 494.49 135.19Z" fill="#EBEEF9"/>
<path d="M388.91 176.23C396.051 184.03 405.102 189.834 415.17 193.07L413.91 297.75L439.09 195.75C448.121 194.948 456.859 192.135 464.662 187.518C472.465 182.9 479.136 176.595 484.186 169.065C489.236 161.534 492.537 152.969 493.846 143.997C495.156 135.026 494.442 125.874 491.756 117.214C489.07 108.555 484.48 100.605 478.322 93.9499C472.165 87.2942 464.597 82.1008 456.171 78.7501C447.746 75.3994 438.678 73.9765 429.632 74.5855C420.585 75.1946 411.79 77.8202 403.89 82.27" stroke="#323232" stroke-width="2" stroke-linecap="round" stroke-linejoin="round"/>
<path d="M478.78 135.19C478.55 113.41 458.61 90.12 433.72 90.12C421.767 90.12 410.303 94.8684 401.851 103.321C393.398 111.773 388.65 123.237 388.65 135.19C388.65 135.19 478.78 135.35 478.78 135.19Z" fill="white"/>
<path d="M396.89 131.05L405.28 131.11" stroke="white" stroke-width="2" stroke-linecap="round" stroke-linejoin="round"/>
<path d="M401.92 112.74L404.96 114.43" stroke="#323232" stroke-width="2" stroke-linecap="round" stroke-linejoin="round"/>
<path d="M415.43 99.39L417.14 102.48" stroke="#323232" stroke-width="2" stroke-linecap="round" stroke-linejoin="round"/>
<path d="M433.81 94.59L433.76 102.98" stroke="#FF3C00" stroke-width="2" stroke-linecap="round" stroke-linejoin="round"/>
<path d="M452.13 99.62L450.19 102.78" stroke="#323232" stroke-width="2" stroke-linecap="round" stroke-linejoin="round"/>
<path d="M465.47 113.13L462.2 115.08" stroke="#323232" stroke-width="2" stroke-linecap="round" stroke-linejoin="round"/>
<path d="M470.28 131.51L461.88 131.46" stroke="white" stroke-width="2" stroke-linecap="round" stroke-linejoin="round"/>
<path d="M383.65 135.19C383.65 135.19 483.78 135.35 483.78 135.19" stroke="#323232" stroke-width="2" stroke-linecap="round" stroke-linejoin="round"/>
<path d="M432.52 131.9L464 123.33C464.185 123.269 464.387 123.282 464.563 123.368C464.738 123.453 464.874 123.603 464.94 123.787C465.007 123.971 464.999 124.173 464.918 124.351C464.838 124.529 464.692 124.668 464.51 124.74L434.93 138.48C434.084 138.878 433.114 138.923 432.235 138.606C431.355 138.289 430.638 137.636 430.24 136.79C429.842 135.944 429.797 134.974 430.114 134.095C430.43 133.215 431.084 132.498 431.93 132.1C432.121 132.019 432.318 131.952 432.52 131.9Z" fill="#323232"/>
<path d="M433.64 141.23C436.849 141.23 439.45 138.629 439.45 135.42C439.45 132.211 436.849 129.61 433.64 129.61C430.431 129.61 427.83 132.211 427.83 135.42C427.83 138.629 430.431 141.23 433.64 141.23Z" fill="white" stroke="#323232" stroke-width="2" stroke-linecap="round" stroke-linejoin="round"/>
<path d="M952.89 47.79C941.235 47.7846 929.825 51.132 920.02 57.4328C910.215 63.7335 902.429 72.7218 897.592 83.3253C892.754 93.9288 891.069 105.7 892.737 117.235C894.406 128.77 899.357 139.581 907 148.38L890.9 187.31L925.84 163C934.046 167.078 943.067 169.248 952.23 169.346C961.393 169.445 970.459 167.471 978.751 163.57C987.043 159.67 994.346 153.945 1000.11 146.824C1005.88 139.703 1009.96 131.37 1012.05 122.448C1014.14 113.527 1014.19 104.248 1012.19 95.3059C1010.19 86.3639 1006.19 77.9903 1000.49 70.8116C994.799 63.6329 987.554 57.8351 979.302 53.8518C971.049 49.8686 962.003 47.8031 952.84 47.81L952.89 47.79Z" fill="#EBEEF9"/>
<path d="M996.66 108.56C992.836 116.592 986.814 123.377 979.292 128.127C971.77 132.877 963.056 135.398 954.16 135.398C945.264 135.398 936.55 132.877 929.028 128.127C921.506 123.377 915.484 116.592 911.66 108.56C915.484 100.528 921.506 93.7431 929.028 88.9931C936.55 84.2431 945.264 81.722 954.16 81.722C963.056 81.722 971.77 84.2431 979.292 88.9931C986.814 93.7431 992.836 100.528 996.66 108.56Z" fill="white"/>
<path d="M892.12 108.56C892.097 123.197 897.384 137.345 907 148.38L890.9 187.31L925.84 163C934.046 167.078 943.067 169.248 952.23 169.346C961.393 169.445 970.459 167.471 978.751 163.57C987.043 159.67 994.346 153.945 1000.11 146.824C1005.88 139.703 1009.96 131.37 1012.05 122.448C1014.14 113.527 1014.19 104.248 1012.19 95.3059C1010.19 86.3639 1006.19 77.9903 1000.49 70.8116C994.799 63.6329 987.554 57.8351 979.302 53.8518C971.049 49.8686 962.003 47.8031 952.84 47.81" stroke="#323232" stroke-width="2" stroke-linecap="round" stroke-linejoin="round"/>
<path d="M940.43 126.92C950.57 126.92 958.79 118.7 958.79 108.56C958.79 98.42 950.57 90.2 940.43 90.2C930.29 90.2 922.07 98.42 922.07 108.56C922.07 118.7 930.29 126.92 940.43 126.92Z" fill="#FF3C00"/>
<path d="M911.61 108.56C915.434 100.528 921.456 93.7431 928.978 88.9931C936.5 84.2431 945.214 81.722 954.11 81.722C963.006 81.722 971.72 84.2431 979.242 88.9931C986.764 93.7431 992.786 100.528 996.61 108.56" stroke="#323232" stroke-width="2" stroke-linecap="round" stroke-linejoin="round"/>
<defs>
<radialGradient id="paint0_radial_226_214" cx="0" cy="0" r="1" gradientUnits="userSpaceOnUse" gradientTransform="translate(447.44 571.11) scale(205.8)">
<stop stop-color="#FFCCDD"/>
<stop offset="0.17" stop-color="#FFAAA9"/>
<stop offset="0.39" stop-color="#FF836E"/>
<stop offset="0.58" stop-color="#FF653E"/>
<stop offset="0.76" stop-color="#FF4E1C"/>
<stop offset="0.9" stop-color="#FF4108"/>
<stop offset="1" stop-color="#FF3C00"/>
</radialGradient>
<linearGradient id="paint1_linear_226_214" x1="719.24" y1="541.71" x2="719.24" y2="391.99" gradientUnits="userSpaceOnUse">
<stop stop-color="#968BCD"/>
<stop offset="0.07" stop-color="#A3A3D7"/>
<stop offset="0.2" stop-color="#B5C5E5"/>
<stop offset="0.32" stop-color="#C2DDF0"/>
<stop offset="0.43" stop-color="#CAECF6"/>
<stop offset="0.52" stop-color="#CDF1F8"/>
</linearGradient>
<linearGradient id="paint2_linear_226_214" x1="669.75" y1="485.46" x2="678.59" y2="536.85" gradientUnits="userSpaceOnUse">
<stop stop-color="#FFCCDD"/>
<stop offset="0.12" stop-color="#FFBFC9"/>
<stop offset="0.38" stop-color="#FF9C94"/>
<stop offset="0.74" stop-color="#FF6640"/>
<stop offset="1" stop-color="#FF3C00"/>
</linearGradient>
</defs>
</svg>
